#pb-Cone-15662.obj
#Saturday, 24 January 2015
#14:47:39
#-------

#pb-Cone-15662
#-------
g pb-Cone-15662
v -10 10 0
v -5 0 -8.660254
v 0 0 0
v 0 0 0
v -5 0 -8.660254
v -10 0 0
v -10 10 0
v -15 0 -8.660254
v -5 0 -8.660254
v -5 0 -8.660254
v -15 0 -8.660254
v -10 0 0
v -10 10 0
v -20 0 8.742278E-07
v -15 0 -8.660254
v -15 0 -8.660254
v -20 0 8.742278E-07
v -10 0 0
v -10 10 0
v -15 0 8.660254
v -20 0 8.742278E-07
v -20 0 8.742278E-07
v -15 0 8.660254
v -10 0 0
v -10 10 0
v -5.000001 0 8.660254
v -15 0 8.660254
v -15 0 8.660254
v -5.000001 0 8.660254
v -10 0 0
v -10 10 0
v 0 0 0
v -5.000001 0 8.660254
v -5.000001 0 8.660254
v 0 0 0
v -10 0 0

vn -0.6546537 -0.6546537 0.3779645
vn -0.6546537 -0.6546537 0.3779645
vn -0.6546537 -0.6546537 0.3779645
vn 0 1 0
vn 0 1 0
vn 0 1 0
vn 5.76728E-08 -0.6546537 0.7559289
vn 5.76728E-08 -0.6546537 0.7559289
vn 5.76728E-08 -0.6546537 0.7559289
vn 0 1 0
vn 0 1 0
vn 0 1 0
vn 0.6546537 -0.6546537 0.3779645
vn 0.6546537 -0.6546537 0.3779645
vn 0.6546537 -0.6546537 0.3779645
vn 0 1 0
vn 0 1 0
vn 0 1 0
vn 0.6546537 -0.6546537 -0.3779645
vn 0.6546537 -0.6546537 -0.3779645
vn 0.6546537 -0.6546537 -0.3779645
vn 0 1 0
vn 0 1 0
vn 0 1 0
vn 0 -0.6546537 -0.7559289
vn 0 -0.6546537 -0.7559289
vn 0 -0.6546537 -0.7559289
vn 0 1 0
vn 0 1 0
vn 0 1 0
vn -0.6546537 -0.6546537 -0.3779645
vn -0.6546537 -0.6546537 -0.3779645
vn -0.6546537 -0.6546537 -0.3779645
vn 0 1 0
vn 0 1 0
vn 0 1 0

vt 0 0
vt 10.6066 9.354145
vt 14.14214 0
vt 0 0
vt 5 8.660254
vt 10 0
vt 5.000001 13.22876
vt 10 0
vt 4.768372E-07 0
vt 4.768372E-07 8.660254
vt 10 8.660254
vt 5 0
vt 5 13.22876
vt 10 0
vt -4.768372E-07 9.536743E-07
vt 5 8.660254
vt 10 0
vt 0 9.536743E-07
vt 14.14214 9.354145
vt 3.535535 0
vt 0 9.354144
vt 10 8.660254
vt 4.999999 0
vt 0 8.660254
vt 4.999999 13.22876
vt 9.999998 0
vt 0 0
vt 9.999998 0
vt 0 0
vt 4.999999 8.660254
vt 0 9.354144
vt 14.14214 9.354144
vt 10.6066 0
vt 5.000001 0
vt 0 8.660254
vt 10 8.660254

usemtl Default_Prototype
usemap Default_Prototype
f 1/1/1 2/2/2 3/3/3
f 4/4/4 5/5/5 6/6/6
f 7/7/7 8/8/8 9/9/9
f 10/10/10 11/11/11 12/12/12
f 13/13/13 14/14/14 15/15/15
f 16/16/16 17/17/17 18/18/18
f 19/19/19 20/20/20 21/21/21
f 22/22/22 23/23/23 24/24/24
f 25/25/25 26/26/26 27/27/27
f 28/28/28 29/29/29 30/30/30
f 31/31/31 32/32/32 33/33/33
f 34/34/34 35/35/35 36/36/36
